<svg xmlns="http://www.w3.org/2000/svg">
  <style>
    svg {
    display: flex;
    justify-content: center;
    align-items: center;
    }
  </style>
<g id="email"  transform="scale(2.25,2.25) translate(0,-1.5)">
  <path fill-rule="evenodd" clip-rule="evenodd" d="M22 12C22 17.5228 17.5228 22 12 22C6.47715 22 2 17.5228 2 12C2 6.47715 6.47715 2 12 2C17.5228 2 22 6.47715 22 12ZM7.005 9C7.005 8.45 7.45 8 8 8H16C16.55 8 17 8.45 17 9V15C17 15.55 16.55 16 16 16H8C7.45 16 7 15.55 7 15L7.005 9ZM12 12.5L8.00001 9.99997V15H16V9.99997L12 12.5ZM12 11.5L8.00001 9.00001H16L12 11.5Z" fill="currentColor" />
</g>
  <g id="gitHub" transform="scale(0.85,0.85) translate(0,-3)">
    <path fill="currentColor" d="M32 6C17.641 6 6 17.641 6 32c0 12.277 8.512 22.56 19.955 25.286-.592-.141-1.179-.299-1.755-.479V50.85c0 0-.975.325-2.275.325-3.637 0-5.148-3.245-5.525-4.875-.229-.993-.827-1.934-1.469-2.509-.767-.684-1.126-.686-1.131-.92-.01-.491.658-.471.975-.471 1.625 0 2.857 1.729 3.429 2.623 1.417 2.207 2.938 2.577 3.721 2.577.975 0 1.817-.146 2.397-.426.268-1.888 1.108-3.57 2.478-4.774-6.097-1.219-10.4-4.716-10.4-10.4 0-2.928 1.175-5.619 3.133-7.792C19.333 23.641 19 22.494 19 20.625c0-1.235.086-2.751.65-4.225 0 0 3.708.026 7.205 3.338C28.469 19.268 30.196 19 32 19s3.531.268 5.145.738c3.497-3.312 7.205-3.338 7.205-3.338.567 1.474.65 2.99.65 4.225 0 2.015-.268 3.19-.432 3.697C46.466 26.475 47.6 29.124 47.6 32c0 5.684-4.303 9.181-10.4 10.4 1.628 1.43 2.6 3.513 2.6 5.85v8.557c-.576.181-1.162.338-1.755.479C49.488 54.56 58 44.277 58 32 58 17.641 46.359 6 32 6zM33.813 57.93C33.214 57.972 32.61 58 32 58 32.61 58 33.213 57.971 33.813 57.93zM37.786 57.346c-1.164.265-2.357.451-3.575.554C35.429 57.797 36.622 57.61 37.786 57.346zM32 58c-.61 0-1.214-.028-1.813-.07C30.787 57.971 31.39 58 32 58zM29.788 57.9c-1.217-.103-2.411-.289-3.574-.554C27.378 57.61 28.571 57.797 29.788 57.9z"/>
  </g>
  <g id="linkedIn">
    <path fill="currentColor" d="M41,4H9C6.24,4,4,6.24,4,9v32c0,2.76,2.24,5,5,5h32c2.76,0,5-2.24,5-5V9C46,6.24,43.76,4,41,4z M17,20v19h-6V20H17z M11,14.47c0-1.4,1.2-2.47,3-2.47s2.93,1.07,3,2.47c0,1.4-1.12,2.53-3,2.53C12.2,17,11,15.87,11,14.47z M39,39h-6c0,0,0-9.26,0-10 c0-2-1-4-3.5-4.04h-0.08C27,24.96,26,27.02,26,29c0,0.91,0,10,0,10h-6V20h6v2.56c0,0,1.93-2.56,5.81-2.56 c3.97,0,7.19,2.73,7.19,8.26V39z"/>
  </g>
  <g id="telegram">
    <path fill="currentColor" d="M25,2c12.703,0,23,10.297,23,23S37.703,48,25,48S2,37.703,2,25S12.297,2,25,2z M32.934,34.375	c0.423-1.298,2.405-14.234,2.65-16.783c0.074-0.772-0.17-1.285-0.648-1.514c-0.578-0.278-1.434-0.139-2.427,0.219	c-1.362,0.491-18.774,7.884-19.78,8.312c-0.954,0.405-1.856,0.847-1.856,1.487c0,0.45,0.267,0.703,1.003,0.966	c0.766,0.273,2.695,0.858,3.834,1.172c1.097,0.303,2.346,0.04,3.046-0.395c0.742-0.461,9.305-6.191,9.92-6.693	c0.614-0.502,1.104,0.141,0.602,0.644c-0.502,0.502-6.38,6.207-7.155,6.997c-0.941,0.959-0.273,1.953,0.358,2.351	c0.721,0.454,5.906,3.932,6.687,4.49c0.781,0.558,1.573,0.811,2.298,0.811C32.191,36.439,32.573,35.484,32.934,34.375z"/>
  </g>
  <g id="code">
  <path fill="currentColor" d="M 5.21875 4 L 5.3125 5.09375 L 7.0625 24.875 L 7.125 25.5625 L 7.78125 25.75 L 15.71875 27.96875 L 15.96875 28.03125 L 16.25 27.96875 L 24.1875 25.78125 L 24.84375 25.59375 L 24.90625 24.90625 L 26.6875 5.09375 L 26.78125 4.03125 L 25.6875 4.03125 L 6.3125 4 Z M 7.40625 6 L 24.59375 6.03125 L 22.96875 24.03125 L 16 25.96875 L 9 24.03125 Z M 9.8125 9 L 10.46875 16.46875 L 19.03125 16.46875 L 18.75 19.6875 L 16 20.4375 L 15.96875 20.4375 L 13.21875 19.6875 L 13.0625 17.625 L 10.5625 17.625 L 10.90625 21.59375 L 15.96875 23 L 16 23 L 21.0625 21.59375 L 21.75 14 L 12.71875 14 L 12.5 11.46875 L 21.96875 11.46875 L 22.1875 9 Z"/>
  </g>
  <!--quotes-->
  <g id="quotes">
    <path d="M18.56 19.616C18.56 21.0453 18.0373 22.2507 16.992 23.232C15.968 24.2133 14.72 24.704 13.248 24.704C11.7333 24.704 10.4747 24.2133 9.472 23.232C8.49067 22.2507 8 21.0453 8 19.616C8 18.9333 8.096 18.208 8.288 17.44C8.48 16.672 8.864 15.68 9.44 14.464L14.4 4H19.2L16.544 15.584C17.1413 16.0107 17.6213 16.576 17.984 17.28C18.368 17.9627 18.56 18.7413 18.56 19.616ZM32.8 19.616C32.8 21.0453 32.2773 22.2507 31.232 23.232C30.1867 24.2133 28.9387 24.704 27.488 24.704C26.016 24.704 24.768 24.2133 23.744 23.232C22.7413 22.2507 22.24 21.0453 22.24 19.616C22.24 18.9333 22.336 18.208 22.528 17.44C22.72 16.672 23.1147 15.68 23.712 14.464L28.704 4H33.472L30.784 15.584C31.4027 16.0107 31.8933 16.576 32.256 17.28C32.6187 17.9627 32.8 18.7413 32.8 19.616Z" fill="#ABB2BF"/>
  </g>
  <!--dots-->
  <g id="dots">
    <circle cx="2" cy="2" r="2" fill="#ABB2BF"/>
    <circle cx="22" cy="2" r="2" fill="#ABB2BF"/>
    <circle cx="42" cy="2" r="2" fill="#ABB2BF"/>
    <circle cx="62" cy="2" r="2" fill="#ABB2BF"/>
    <circle cx="82" cy="2" r="2" fill="#ABB2BF"/>
    <circle cx="2" cy="22" r="2" fill="#ABB2BF"/>
    <circle cx="22" cy="22" r="2" fill="#ABB2BF"/>
    <circle cx="42" cy="22" r="2" fill="#ABB2BF"/>
    <circle cx="62" cy="22" r="2" fill="#ABB2BF"/>
    <circle cx="82" cy="22" r="2" fill="#ABB2BF"/>
    <circle cx="2" cy="42" r="2" fill="#ABB2BF"/>
    <circle cx="22" cy="42" r="2" fill="#ABB2BF"/>
    <circle cx="42" cy="42" r="2" fill="#ABB2BF"/>
    <circle cx="62" cy="42" r="2" fill="#ABB2BF"/>
    <circle cx="82" cy="42" r="2" fill="#ABB2BF"/>
    <circle cx="2" cy="62" r="2" fill="#ABB2BF"/>
    <circle cx="22" cy="62" r="2" fill="#ABB2BF"/>
    <circle cx="42" cy="62" r="2" fill="#ABB2BF"/>
    <circle cx="62" cy="62" r="2" fill="#ABB2BF"/>
    <circle cx="82" cy="62" r="2" fill="#ABB2BF"/>
    <circle cx="2" cy="82" r="2" fill="#ABB2BF"/>
    <circle cx="22" cy="82" r="2" fill="#ABB2BF"/>
    <circle cx="42" cy="82" r="2" fill="#ABB2BF"/>
    <circle cx="62" cy="82" r="2" fill="#ABB2BF"/>
    <circle cx="82" cy="82" r="2" fill="#ABB2BF"/>
  </g>
  <!--dots small-->
  <g id="dots-small">
    <circle cx="2" cy="2" r="2" fill="#C778DD"/>
    <circle cx="28.25" cy="2" r="2" fill="#C778DD"/>
    <circle cx="54.5" cy="2" r="2" fill="#C778DD"/>
    <circle cx="80.75" cy="2" r="2" fill="#C778DD"/>
    <circle cx="107" cy="2" r="2" fill="#C778DD"/>
    <circle cx="2" cy="17" r="2" fill="#C778DD"/>
    <circle cx="28.25" cy="17" r="2" fill="#C778DD"/>
    <circle cx="54.5" cy="17" r="2" fill="#C778DD"/>
    <circle cx="80.75" cy="17" r="2" fill="#C778DD"/>
    <circle cx="107" cy="17" r="2" fill="#C778DD"/>
    <circle cx="2" cy="32" r="2" fill="#C778DD"/>
    <circle cx="28.25" cy="32" r="2" fill="#C778DD"/>
    <circle cx="54.5" cy="32" r="2" fill="#C778DD"/>
    <circle cx="80.75" cy="32" r="2" fill="#C778DD"/>
    <circle cx="107" cy="32" r="2" fill="#C778DD"/>
    <circle cx="2" cy="47" r="2" fill="#C778DD"/>
    <circle cx="28.25" cy="47" r="2" fill="#C778DD"/>
    <circle cx="54.5" cy="47" r="2" fill="#C778DD"/>
    <circle cx="80.75" cy="47" r="2" fill="#ABB2BF"/>
    <circle cx="107" cy="47" r="2" fill="#ABB2BF"/>
  </g>
  <!--x-->
  <g id="x">
    <path d="M73.2847 20.9092L85.4554 33.0798L33.7689 84.7663L21.5983 72.5956L73.2847 20.9092ZM33.251 19.4073L88.1485 74.3047L75.0456 87.4076L20.1481 32.5102L33.251 19.4073Z"  fill="#ABB2BF" fill-opacity="0.5"/>
  </g>
  <!--square-->
  <g id="square">
    <rect x="0.5" y="0.5" width="85" height="85" stroke="#C778DD"/>
  </g><g id="square-big">
  <rect x="0.5" y="0.5" width="154" height="154" stroke="#ABB2BF"/>
  </g>
</svg>
