<svg xmlns="http://www.w3.org/2000/svg">
  <style>
    svg {
    display: flex;
    justify-content: center;
    align-items: center;
    }
  </style>
<g id="email"  transform="scale(2.25,2.25) translate(0,-1.5)">
  <path fill-rule="evenodd" clip-rule="evenodd" d="M22 12C22 17.5228 17.5228 22 12 22C6.47715 22 2 17.5228 2 12C2 6.47715 6.47715 2 12 2C17.5228 2 22 6.47715 22 12ZM7.005 9C7.005 8.45 7.45 8 8 8H16C16.55 8 17 8.45 17 9V15C17 15.55 16.55 16 16 16H8C7.45 16 7 15.55 7 15L7.005 9ZM12 12.5L8.00001 9.99997V15H16V9.99997L12 12.5ZM12 11.5L8.00001 9.00001H16L12 11.5Z" fill="#51bbe2" />
</g>
  <g id="gitHub" transform="scale(0.85,0.85) translate(0,-3)">
    <path fill="#51bbe2" d="M32 6C17.641 6 6 17.641 6 32c0 12.277 8.512 22.56 19.955 25.286-.592-.141-1.179-.299-1.755-.479V50.85c0 0-.975.325-2.275.325-3.637 0-5.148-3.245-5.525-4.875-.229-.993-.827-1.934-1.469-2.509-.767-.684-1.126-.686-1.131-.92-.01-.491.658-.471.975-.471 1.625 0 2.857 1.729 3.429 2.623 1.417 2.207 2.938 2.577 3.721 2.577.975 0 1.817-.146 2.397-.426.268-1.888 1.108-3.57 2.478-4.774-6.097-1.219-10.4-4.716-10.4-10.4 0-2.928 1.175-5.619 3.133-7.792C19.333 23.641 19 22.494 19 20.625c0-1.235.086-2.751.65-4.225 0 0 3.708.026 7.205 3.338C28.469 19.268 30.196 19 32 19s3.531.268 5.145.738c3.497-3.312 7.205-3.338 7.205-3.338.567 1.474.65 2.99.65 4.225 0 2.015-.268 3.19-.432 3.697C46.466 26.475 47.6 29.124 47.6 32c0 5.684-4.303 9.181-10.4 10.4 1.628 1.43 2.6 3.513 2.6 5.85v8.557c-.576.181-1.162.338-1.755.479C49.488 54.56 58 44.277 58 32 58 17.641 46.359 6 32 6zM33.813 57.93C33.214 57.972 32.61 58 32 58 32.61 58 33.213 57.971 33.813 57.93zM37.786 57.346c-1.164.265-2.357.451-3.575.554C35.429 57.797 36.622 57.61 37.786 57.346zM32 58c-.61 0-1.214-.028-1.813-.07C30.787 57.971 31.39 58 32 58zM29.788 57.9c-1.217-.103-2.411-.289-3.574-.554C27.378 57.61 28.571 57.797 29.788 57.9z"/>
  </g>
  <g id="linkedIn">
    <path fill="#51bbe2" d="M41,4H9C6.24,4,4,6.24,4,9v32c0,2.76,2.24,5,5,5h32c2.76,0,5-2.24,5-5V9C46,6.24,43.76,4,41,4z M17,20v19h-6V20H17z M11,14.47c0-1.4,1.2-2.47,3-2.47s2.93,1.07,3,2.47c0,1.4-1.12,2.53-3,2.53C12.2,17,11,15.87,11,14.47z M39,39h-6c0,0,0-9.26,0-10 c0-2-1-4-3.5-4.04h-0.08C27,24.96,26,27.02,26,29c0,0.91,0,10,0,10h-6V20h6v2.56c0,0,1.93-2.56,5.81-2.56 c3.97,0,7.19,2.73,7.19,8.26V39z"/>
  </g>
  <g id="telegram">
    <path fill="#51bbe2" d="M25,2c12.703,0,23,10.297,23,23S37.703,48,25,48S2,37.703,2,25S12.297,2,25,2z M32.934,34.375	c0.423-1.298,2.405-14.234,2.65-16.783c0.074-0.772-0.17-1.285-0.648-1.514c-0.578-0.278-1.434-0.139-2.427,0.219	c-1.362,0.491-18.774,7.884-19.78,8.312c-0.954,0.405-1.856,0.847-1.856,1.487c0,0.45,0.267,0.703,1.003,0.966	c0.766,0.273,2.695,0.858,3.834,1.172c1.097,0.303,2.346,0.04,3.046-0.395c0.742-0.461,9.305-6.191,9.92-6.693	c0.614-0.502,1.104,0.141,0.602,0.644c-0.502,0.502-6.38,6.207-7.155,6.997c-0.941,0.959-0.273,1.953,0.358,2.351	c0.721,0.454,5.906,3.932,6.687,4.49c0.781,0.558,1.573,0.811,2.298,0.811C32.191,36.439,32.573,35.484,32.934,34.375z"/>
  </g>
  <g id="code">
  <path fill="#51bbe2" d="M 5.21875 4 L 5.3125 5.09375 L 7.0625 24.875 L 7.125 25.5625 L 7.78125 25.75 L 15.71875 27.96875 L 15.96875 28.03125 L 16.25 27.96875 L 24.1875 25.78125 L 24.84375 25.59375 L 24.90625 24.90625 L 26.6875 5.09375 L 26.78125 4.03125 L 25.6875 4.03125 L 6.3125 4 Z M 7.40625 6 L 24.59375 6.03125 L 22.96875 24.03125 L 16 25.96875 L 9 24.03125 Z M 9.8125 9 L 10.46875 16.46875 L 19.03125 16.46875 L 18.75 19.6875 L 16 20.4375 L 15.96875 20.4375 L 13.21875 19.6875 L 13.0625 17.625 L 10.5625 17.625 L 10.90625 21.59375 L 15.96875 23 L 16 23 L 21.0625 21.59375 L 21.75 14 L 12.71875 14 L 12.5 11.46875 L 21.96875 11.46875 L 22.1875 9 Z"/>
  </g>
  <g id="css">
  <path fill="#51bbe2" d="M 6 4 L 8 25 L 16 28 L 24 25 L 26 4 L 6 4 z M 9.3320312 7 L 22.652344 7 L 22.390625 10 L 16.695312 13 L 19.121094 13 L 22 13 L 22.123047 13 L 21.611328 19.007812 L 21.630859 19 L 21.355469 22 L 16 24 L 10.634766 22 L 10.304688 18 L 13.326172 18 L 13.482422 20.033203 L 16 20.904297 L 18.521484 20.050781 L 18.867188 16 L 10.130859 16 L 9.8730469 13 L 15.783203 10 L 9.609375 10 L 9.3320312 7 z"/>
  </g>
  <g id="sass" transform="scale(0.7,0.7)">
    <path fill="#51bbe2" d="M43.03,27.802c-1.747,0.009-3.261,0.429-4.53,1.054c-0.464-0.926-0.934-1.741-1.013-2.347 c-0.092-0.707-0.199-1.129-0.088-1.972c0.111-0.843,0.599-2.036,0.591-2.125c-0.007-0.089-0.109-0.518-1.117-0.526 c-1.008-0.007-1.87,0.194-1.972,0.46c-0.102,0.266-0.296,0.865-0.416,1.49c-0.177,0.914-2.012,4.174-3.055,5.879 c-0.341-0.666-0.631-1.252-0.691-1.716c-0.092-0.707-0.199-1.129-0.088-1.972c0.111-0.843,0.599-2.036,0.591-2.125 c-0.007-0.089-0.109-0.518-1.117-0.526c-1.008-0.007-1.87,0.194-1.972,0.46c-0.102,0.266-0.21,0.888-0.416,1.49 c-0.207,0.602-2.647,6.039-3.286,7.448c-0.326,0.718-0.609,1.295-0.809,1.689c-0.001-0.001-0.001-0.002-0.001-0.002 s-0.012,0.026-0.034,0.071c-0.171,0.335-0.273,0.521-0.273,0.521s0.001,0.003,0.003,0.007c-0.136,0.246-0.281,0.475-0.353,0.475 c-0.05,0-0.151-0.656,0.022-1.555c0.363-1.886,1.235-4.828,1.227-4.929c-0.004-0.052,0.162-0.564-0.57-0.833 c-0.711-0.26-0.965,0.174-1.03,0.175c-0.063,0.001-0.11,0.153-0.11,0.153s0.793-3.308-1.512-3.308c-1.44,0-3.436,1.576-4.42,3.004 c-0.62,0.338-1.948,1.063-3.357,1.837c-0.541,0.297-1.093,0.601-1.617,0.89c-0.036-0.039-0.071-0.079-0.108-0.118 c-2.794-2.981-7.958-5.089-7.739-9.096c0.08-1.457,0.586-5.293,9.924-9.946c7.649-3.812,13.773-2.763,14.831-0.438 c1.512,3.321-3.273,9.494-11.216,10.384c-3.027,0.339-4.62-0.834-5.017-1.271c-0.417-0.46-0.479-0.481-0.635-0.394 c-0.254,0.141-0.093,0.547,0,0.789c0.237,0.617,1.21,1.712,2.87,2.256c1.46,0.479,5.013,0.742,9.311-0.92 c4.813-1.862,8.571-7.041,7.468-11.37c-1.123-4.403-8.423-5.85-15.332-3.396c-4.112,1.461-8.563,3.754-11.764,6.747 c-3.806,3.56-4.412,6.658-4.162,7.952c0.889,4.6,7.228,7.595,9.767,9.815c-0.125,0.069-0.243,0.134-0.35,0.193 c-1.273,0.63-6.105,3.159-7.314,5.831c-1.371,3.031,0.218,5.206,1.271,5.499c3.26,0.907,6.606-0.725,8.404-3.407 c1.798-2.681,1.578-6.172,0.753-7.766c-0.01-0.02-0.022-0.039-0.032-0.059c0.329-0.195,0.664-0.392,0.996-0.587 c0.648-0.38,1.284-0.735,1.836-1.036c-0.309,0.846-0.535,1.86-0.653,3.325c-0.138,1.721,0.567,3.945,1.49,4.82 c0.406,0.385,0.895,0.394,1.205,0.394c1.074,0,1.564-0.893,2.103-1.95c0.662-1.296,1.249-2.804,1.249-2.804 s-0.737,4.075,1.271,4.075c0.731,0,1.467-0.949,1.795-1.432c0.001,0.005,0.001,0.008,0.001,0.008s0.019-0.031,0.056-0.095 c0.076-0.116,0.119-0.19,0.119-0.19s0.002-0.008,0.004-0.021c0.294-0.51,0.946-1.674,1.924-3.594 c1.263-2.48,2.475-5.586,2.475-5.586s0.113,0.76,0.482,2.015c0.217,0.739,0.679,1.556,1.043,2.339 c-0.293,0.407-0.473,0.64-0.473,0.64s0.002,0.004,0.005,0.012c-0.234,0.311-0.497,0.646-0.772,0.974 c-0.997,1.188-2.185,2.544-2.344,2.936c-0.187,0.461-0.143,0.801,0.219,1.073c0.264,0.199,0.735,0.23,1.227,0.197 c0.896-0.06,1.527-0.283,1.838-0.418c0.485-0.171,1.05-0.441,1.58-0.831c0.978-0.719,1.568-1.748,1.512-3.111 c-0.031-0.751-0.271-1.495-0.574-2.198c0.089-0.128,0.178-0.256,0.267-0.387c1.542-2.255,2.738-4.732,2.738-4.732 s0.113,0.76,0.482,2.015c0.187,0.636,0.556,1.329,0.887,2.009c-1.45,1.178-2.349,2.547-2.662,3.445 c-0.577,1.661-0.125,2.414,0.723,2.585c0.384,0.078,0.927-0.098,1.335-0.271c0.508-0.168,1.118-0.449,1.688-0.868 c0.978-0.719,1.919-1.726,1.862-3.089c-0.026-0.62-0.194-1.236-0.422-1.828c1.229-0.512,2.821-0.797,4.848-0.56 c4.349,0.508,5.202,3.223,5.039,4.359c-0.163,1.137-1.075,1.761-1.38,1.95c-0.305,0.189-0.398,0.254-0.372,0.394 c0.037,0.204,0.178,0.196,0.438,0.152c0.358-0.06,2.283-0.924,2.366-3.022C50.102,30.703,47.55,27.778,43.03,27.802z M9.512,39.102 c-1.44,1.571-3.453,2.165-4.316,1.665c-0.932-0.54-0.563-2.854,1.205-4.521c1.077-1.016,2.468-1.952,3.391-2.529 c0.21-0.126,0.518-0.312,0.893-0.537c0.062-0.035,0.097-0.055,0.097-0.055l-0.001-0.002c0.072-0.043,0.147-0.088,0.223-0.134 C11.647,35.363,11.024,37.453,9.512,39.102z M20.005,31.968c-0.502,1.223-1.552,4.352-2.191,4.184 c-0.549-0.144-0.883-2.523-0.11-4.863c0.389-1.178,1.22-2.586,1.709-3.133c0.786-0.879,1.652-1.167,1.862-0.81 C21.544,27.8,20.32,31.201,20.005,31.968z M28.675,36.105c-0.213,0.111-0.408,0.181-0.498,0.127 c-0.067-0.04,0.088-0.186,0.088-0.186s1.084-1.167,1.512-1.698c0.248-0.309,0.537-0.676,0.85-1.086 c0.003,0.041,0.004,0.082,0.004,0.122C30.627,34.782,29.277,35.725,28.675,36.105z M35.354,34.582 c-0.159-0.113-0.132-0.478,0.389-1.614c0.205-0.446,0.672-1.198,1.485-1.916c0.094,0.295,0.152,0.578,0.15,0.842 C37.367,33.653,36.112,34.31,35.354,34.582z"/>
  </g>
  <g id="react">
  <path fill="#51bbe2" d="M 11.404297 3.359375 C 10.558989 3.3033199 9.7282187 3.4545628 9 3.875 C 8.0290418 4.435583 7.3824561 5.3924554 7.0351562 6.4941406 C 6.6878566 7.5958258 6.6075884 8.8654625 6.734375 10.251953 C 6.7472175 10.392393 6.7719235 10.538778 6.7890625 10.681641 C 6.6565239 10.738327 6.516949 10.790405 6.3886719 10.849609 C 5.1245423 11.433054 4.0655937 12.136668 3.2851562 12.988281 C 2.5047189 13.839894 2 14.878834 2 16 C 2 17.121166 2.5047188 18.160106 3.2851562 19.011719 C 4.0655937 19.863332 5.1245423 20.566946 6.3886719 21.150391 C 6.516949 21.209595 6.6565239 21.261673 6.7890625 21.318359 C 6.7719235 21.461222 6.7472175 21.607607 6.734375 21.748047 C 6.6075884 23.134538 6.6878566 24.404174 7.0351562 25.505859 C 7.3824561 26.607544 8.0290418 27.564417 9 28.125 C 9.9709582 28.685583 11.122263 28.76765 12.25 28.517578 C 13.377738 28.267506 14.516954 27.701483 15.654297 26.898438 C 15.769442 26.817137 15.884905 26.722947 16 26.636719 C 16.115095 26.722947 16.230558 26.817137 16.345703 26.898438 C 17.483046 27.701483 18.622262 28.267506 19.75 28.517578 C 20.877737 28.76765 22.029042 28.685583 23 28.125 C 23.970958 27.564417 24.617544 26.607544 24.964844 25.505859 C 25.312144 24.404174 25.392412 23.134538 25.265625 21.748047 C 25.252783 21.607607 25.228076 21.461222 25.210938 21.318359 C 25.343476 21.261673 25.483051 21.209595 25.611328 21.150391 C 26.875458 20.566946 27.934406 19.863332 28.714844 19.011719 C 29.495281 18.160106 30 17.121166 30 16 C 30 14.878834 29.495281 13.839894 28.714844 12.988281 C 27.934406 12.136668 26.875458 11.433054 25.611328 10.849609 C 25.483051 10.790405 25.343476 10.738327 25.210938 10.681641 C 25.228076 10.538778 25.252783 10.392393 25.265625 10.251953 C 25.392412 8.8654622 25.312144 7.5958262 24.964844 6.4941406 C 24.617544 5.3924558 23.970958 4.435583 23 3.875 C 22.029042 3.314417 20.877737 3.2323501 19.75 3.4824219 C 18.622262 3.7324945 17.483046 4.2985163 16.345703 5.1015625 C 16.230558 5.1828631 16.115095 5.2770534 16 5.3632812 C 15.884905 5.2770534 15.769442 5.1828632 15.654297 5.1015625 C 14.516954 4.2985167 13.377738 3.7324941 12.25 3.4824219 C 11.968066 3.4199038 11.686066 3.37806 11.404297 3.359375 z M 11.273438 5.3515625 C 11.44385 5.3643925 11.625005 5.3926711 11.818359 5.4355469 C 12.574044 5.6031175 13.479049 6.027269 14.433594 6.6914062 C 13.638579 7.445577 12.856199 8.3035536 12.109375 9.2636719 C 10.905846 9.4303655 9.7722189 9.6771858 8.7226562 9.9882812 C 8.6249172 8.8300209 8.708758 7.8336973 8.9414062 7.0957031 C 9.1795887 6.3401532 9.5360797 5.8752664 10 5.6074219 C 10.34794 5.4065385 10.762201 5.3130725 11.273438 5.3515625 z M 20.726562 5.3515625 C 21.237799 5.3130724 21.65206 5.4065385 22 5.6074219 C 22.46392 5.8752664 22.820412 6.3401534 23.058594 7.0957031 C 23.291242 7.8336973 23.375082 8.830021 23.277344 9.9882812 C 22.227781 9.6771858 21.094154 9.4303655 19.890625 9.2636719 C 19.143801 8.3035536 18.361421 7.445577 17.566406 6.6914062 C 18.520951 6.0272696 19.425956 5.6031175 20.181641 5.4355469 C 20.374995 5.3926712 20.556151 5.3643925 20.726562 5.3515625 z M 16 7.9589844 C 16.351492 8.2839608 16.702356 8.645337 17.052734 9.0234375 C 16.704015 9.0111056 16.355492 9 16 9 C 15.644508 9 15.295985 9.0111056 14.947266 9.0234375 C 15.297644 8.645337 15.648508 8.2839609 16 7.9589844 z M 16 11 C 16.964537 11 17.899388 11.05672 18.798828 11.152344 C 19.331359 11.883468 19.847811 12.66469 20.330078 13.5 C 20.81238 14.335371 21.230731 15.173194 21.597656 16 C 21.230731 16.826806 20.81238 17.664629 20.330078 18.5 C 19.847811 19.33531 19.331359 20.116532 18.798828 20.847656 C 17.899388 20.94328 16.964537 21 16 21 C 15.035463 21 14.100612 20.94328 13.201172 20.847656 C 12.668641 20.116532 12.152189 19.33531 11.669922 18.5 C 11.18762 17.664629 10.769268 16.826806 10.402344 16 C 10.769268 15.173194 11.18762 14.335371 11.669922 13.5 C 12.152189 12.66469 12.668641 11.883468 13.201172 11.152344 C 14.100612 11.05672 15.035463 11 16 11 z M 10.484375 11.599609 C 10.299345 11.895429 10.115237 12.192151 9.9375 12.5 C 9.7597627 12.80785 9.5953134 13.115677 9.4316406 13.423828 C 9.2796229 12.932067 9.1426994 12.44671 9.0371094 11.980469 C 9.4941217 11.838603 9.981943 11.71397 10.484375 11.599609 z M 21.515625 11.599609 C 22.018057 11.71397 22.505878 11.838603 22.962891 11.980469 C 22.857301 12.44671 22.720377 12.932067 22.568359 13.423828 C 22.404687 13.115677 22.240237 12.80785 22.0625 12.5 C 21.884763 12.192151 21.700655 11.895429 21.515625 11.599609 z M 7.1542969 12.703125 C 7.409859 13.768497 7.7627696 14.873405 8.2207031 16 C 7.7627696 17.126595 7.409859 18.231503 7.1542969 19.296875 C 6.1028081 18.802492 5.282404 18.230459 4.7597656 17.660156 C 4.2245315 17.076109 4 16.535689 4 16 C 4 15.464311 4.2245315 14.923891 4.7597656 14.339844 C 5.282404 13.769541 6.1028081 13.197508 7.1542969 12.703125 z M 24.845703 12.703125 C 25.897191 13.197508 26.717596 13.769541 27.240234 14.339844 C 27.775468 14.923891 28 15.464311 28 16 C 28 16.535689 27.775468 17.076109 27.240234 17.660156 C 26.717596 18.230459 25.897191 18.802492 24.845703 19.296875 C 24.590141 18.231503 24.23723 17.126595 23.779297 16 C 24.23723 14.873405 24.590141 13.768497 24.845703 12.703125 z M 16 13 C 14.35499 13 13 14.35499 13 16 C 13 17.64501 14.35499 19 16 19 C 17.64501 19 19 17.64501 19 16 C 19 14.35499 17.64501 13 16 13 z M 16 15 C 16.564129 15 17 15.435871 17 16 C 17 16.564129 16.564129 17 16 17 C 15.435871 17 15 16.564129 15 16 C 15 15.435871 15.435871 15 16 15 z M 9.4316406 18.576172 C 9.5953134 18.884323 9.7597627 19.19215 9.9375 19.5 C 10.115237 19.807849 10.299345 20.104571 10.484375 20.400391 C 9.981943 20.28603 9.4941217 20.161397 9.0371094 20.019531 C 9.1426994 19.55329 9.2796229 19.067933 9.4316406 18.576172 z M 22.568359 18.576172 C 22.720377 19.067933 22.857301 19.55329 22.962891 20.019531 C 22.505878 20.161397 22.018057 20.28603 21.515625 20.400391 C 21.700655 20.104571 21.884763 19.807849 22.0625 19.5 C 22.240237 19.19215 22.404687 18.884323 22.568359 18.576172 z M 8.7226562 22.011719 C 9.7722189 22.322814 10.905846 22.569634 12.109375 22.736328 C 12.856199 23.696446 13.638579 24.554423 14.433594 25.308594 C 13.479049 25.97273 12.574044 26.396882 11.818359 26.564453 C 11.044942 26.735955 10.46392 26.660422 10 26.392578 C 9.5360797 26.124733 9.1795888 25.659846 8.9414062 24.904297 C 8.708758 24.166302 8.6249172 23.169979 8.7226562 22.011719 z M 23.277344 22.011719 C 23.375082 23.169979 23.29124 24.166302 23.058594 24.904297 C 22.820412 25.659847 22.46392 26.124733 22 26.392578 C 21.53608 26.660422 20.955057 26.735956 20.181641 26.564453 C 19.425956 26.396882 18.520951 25.97273 17.566406 25.308594 C 18.361421 24.554423 19.143801 23.696446 19.890625 22.736328 C 21.094154 22.569634 22.227781 22.322814 23.277344 22.011719 z M 14.947266 22.976562 C 15.295985 22.988894 15.644508 23 16 23 C 16.355492 23 16.704015 22.988894 17.052734 22.976562 C 16.702356 23.354663 16.351492 23.716039 16 24.041016 C 15.648508 23.716039 15.297644 23.354663 14.947266 22.976562 z"/>
  </g>
  <g id="ts">
  <path fill="#51bbe2" d="M 4 4 L 4 5 L 4 28 L 28 28 L 28 4 L 4 4 z M 6 6 L 26 6 L 26 26 L 6 26 L 6 6 z M 10.324219 14 L 10.324219 15.873047 L 12.878906 15.873047 L 12.878906 24.015625 L 14.980469 24.015625 L 14.980469 15.873047 L 17.587891 15.873047 L 17.587891 14 L 10.324219 14 z M 20.703125 14.162109 C 19.245125 14.268484 17.787109 14.878937 17.787109 16.898438 C 17.787109 19.869438 21.789062 19.870938 21.789062 21.210938 C 21.789062 21.337937 21.844641 22.261719 20.431641 22.261719 C 19.018641 22.261719 17.841797 21.373047 17.841797 21.373047 L 17.841797 23.527344 C 17.841797 23.527344 24 25.519344 24 21.027344 C 24 18.111344 19.960938 18.257594 19.960938 16.808594 C 19.960937 16.246594 20.359844 15.720703 21.464844 15.720703 C 22.569844 15.720703 23.546875 16.373047 23.546875 16.373047 L 23.619141 14.453125 C 23.619141 14.453125 22.161125 14.055734 20.703125 14.162109 z"/>
  </g>
  <g id="styled" transform="scale(0.7,0.7)">
    <path fill="#51bbe2" d="M41.3455 0L40.9851 1.86617C40.4277 5.40282 40.6295 6.41466 42.1576 7.72718L43.6329 8.93948L42.1048 15.7073C41.1917 19.7451 40.0721 23.1291 39.3609 24.2411C38.7506 25.2005 38.0394 26.6132 37.8856 27.3721C37.631 28.2789 36.766 29.1905 35.4445 29.9971C34.2768 30.6558 31.9846 32.4217 30.3604 33.8393C29.063 34.999 28.1692 35.7102 27.6838 36.0156L26.098 37.2614C25.5887 38.0727 25.3003 38.7266 25.1898 39.223C25.0793 39.7337 25.1418 40.0725 25.3051 40.3207C25.4637 40.5594 25.7376 40.7264 26.1124 40.8314C26.5561 40.9347 27.0129 40.9717 27.4676 40.9412C28.4962 40.8714 29.5144 40.6922 30.5046 40.4066C30.8409 40.316 31.1052 40.23 31.3359 40.1537C31.6915 39.7194 32.5132 38.8984 33.9692 37.4714C37.8328 33.6865 39.308 31.6151 37.7847 32.1735C37.2225 32.374 37.4772 31.8681 38.4431 30.8562C40.4805 28.8851 41.6483 25.9068 44.0894 16.5664C46.0211 9.19244 46.0211 9.08744 47.4435 9.08744C48.1115 9.08744 50 9.20198 50 9.20198V0H45.6656H41.3455ZM24.2287 15.7742C22.8256 15.7646 19.8078 17.8885 10.7737 25.2148C10.3844 26.1359 10.3508 26.7707 10.5286 27.1812C10.6439 27.4628 10.8554 27.6585 11.1485 27.8016C11.4368 27.9448 11.8116 28.0307 12.2249 28.0641C13.0466 28.1357 14.0173 28.0069 14.8006 27.8541L15.3292 27.7348C15.5101 27.4938 15.7477 27.3005 16.0211 27.1716C16.5786 26.8662 18.9188 24.747 21.259 22.4752C25.3772 18.3324 26.3431 16.4614 24.666 15.8553C24.5284 15.8009 24.3768 15.7734 24.2287 15.7742ZM34.7814 18.6522C33.5464 18.6856 31.3215 20.1079 27.5108 23.1291C25.5983 24.6707 24.3873 25.5011 23.7386 25.673L21.2206 27.6489C20.2739 29.3671 20.1346 30.4315 20.3844 31.0185C20.447 31.1633 20.5378 31.2944 20.6516 31.4042C20.7654 31.5139 20.9 31.6002 21.0476 31.6581C21.4147 31.8021 21.8062 31.875 22.2009 31.8728C23.1441 31.8629 24.0816 31.7264 24.988 31.4672C25.4604 31.3413 25.9269 31.1947 26.3864 31.0281L26.5257 30.9708L26.7804 30.8371C27.2609 30.2215 28.3662 29.0617 29.7501 27.7253C34.123 23.5347 36.3575 20.5565 35.901 19.4444C35.6944 18.9051 35.3388 18.6331 34.7814 18.6522ZM23.1331 23.8068C22.7775 23.845 21.9798 24.4559 20.543 25.7064C18.4671 27.5296 16.2038 28.5796 15.4205 28.1119C15.2384 28.1527 15.0558 28.1909 14.8727 28.2264C14.075 28.3839 13.0803 28.5128 12.1913 28.4412C11.7724 28.416 11.3618 28.3141 10.9803 28.1405C10.6204 27.9771 10.3333 27.6885 10.173 27.3291C9.9952 26.8996 9.9952 26.365 10.197 25.6825L7.07352 28.2312L0.00480641 34.0397V43.4565L23.1667 25.3341C23.1623 25.1357 23.1882 24.9377 23.2436 24.747C23.4214 24.1075 23.4118 23.7829 23.1331 23.8116V23.8068ZM33.0995 26.8566C32.7487 26.8566 32.1624 27.3482 31.2254 28.3362C29.9519 29.6869 27.9481 30.9947 26.8861 31.2619L26.7227 31.3478C26.5484 31.4193 26.3721 31.4862 26.1941 31.5483C25.9058 31.6438 25.531 31.7583 25.0985 31.8728C24.2335 32.1067 23.1571 32.3215 22.1961 32.2976C21.743 32.2971 21.2943 32.2095 20.8746 32.0399C20.479 31.878 20.1621 31.57 19.9904 31.1808C19.7117 30.5174 19.8222 29.5867 20.4325 28.2646L0 44.2488V50H8.97645L28.0154 35.147C28.5103 34.6029 29.2552 33.8583 30.2595 32.9276C32.9505 30.4506 33.5608 29.5962 33.5608 28.3314C33.5608 27.3482 33.4503 26.8518 33.0995 26.8518V26.8566ZM37.6309 36.1636L36.0019 37.7768C35.0889 38.6359 33.4599 39.6955 32.345 40.1489L32.124 40.2444L32.1096 40.2682L32.0615 40.316C32.0183 40.3494 31.999 40.3541 31.9654 40.3685C31.5204 40.5358 31.0682 40.6839 30.6103 40.8123C29.5921 41.1067 28.5448 41.2907 27.4868 41.3612C26.9865 41.3931 26.4843 41.3496 25.9971 41.2323C25.5743 41.1399 25.2011 40.895 24.9495 40.5451C24.7189 40.1919 24.6516 39.7194 24.7814 39.1371C24.8846 38.7225 25.0378 38.3219 25.2379 37.9439L9.87506 50H30.3075L32.7487 47.2222C36.1028 43.3371 37.6309 40.5594 37.6309 38.1825V36.1636Z"/>
  </g>
  <g id="redux">
  <path fill="#51bbe2" d="M 15.5 4 C 11.364 4 8 8.548625 8 14.140625 C 8 16.865108 8.8086552 19.327357 10.107422 21.150391 A 1.75 1.75 0 0 0 11.75 23.5 A 1.75 1.75 0 1 0 11.75 20 A 1.75 1.75 0 0 0 11.697266 20.001953 C 10.653587 18.520785 10 16.443926 10 14.140625 C 10 9.651625 12.468 6 15.5 6 C 17.67 6 19.545453 7.8740312 20.439453 10.582031 C 21.211453 10.810031 21.977609 11.098031 22.724609 11.457031 C 21.851609 7.1650313 18.948 4 15.5 4 z M 14.25 11.75 A 1.75 1.75 0 1 0 14.25 15.25 A 1.75 1.75 0 0 0 15.904297 14.066406 C 17.79992 13.840068 20.031164 14.393321 22.066406 15.644531 C 25.915406 18.012531 27.957391 22.245672 26.525391 24.888672 C 26.021391 25.817672 25.134078 26.474062 23.955078 26.789062 C 22.740078 27.114062 21.324766 27.050344 19.884766 26.652344 C 19.328766 27.185344 18.710687 27.678531 18.054688 28.144531 C 19.471688 28.702531 20.920156 28.998047 22.285156 28.998047 C 23.046156 28.998047 23.781703 28.908609 24.470703 28.724609 C 26.192703 28.263609 27.51025 27.26775 28.28125 25.84375 C 30.26825 22.17475 27.998281 16.944453 23.113281 13.939453 C 20.587601 12.384843 17.739937 11.736844 15.322266 12.119141 A 1.75 1.75 0 0 0 14.25 11.75 z M 6.1367188 16.138672 C 3.2327188 19.112672 2.1528437 22.95975 3.7148438 25.84375 C 4.4868438 27.26775 5.8033906 28.263609 7.5253906 28.724609 C 8.2143906 28.909609 8.9518906 28.998047 9.7128906 28.998047 C 11.788891 28.998047 14.061188 28.326547 16.117188 27.060547 C 18.756959 25.437163 20.622272 23.164286 21.474609 20.839844 A 1.75 1.75 0 0 0 20.75 17.5 A 1.75 1.75 0 0 0 19.451172 20.421875 C 18.691901 22.248213 17.154291 24.075966 15.072266 25.357422 C 12.720266 26.803422 10.092969 27.339016 8.0429688 26.791016 C 6.8639687 26.476016 5.9756563 25.818625 5.4726562 24.890625 C 4.5316563 23.153625 5.0975937 20.731563 6.6835938 18.601562 C 6.4375937 17.816562 6.2497188 16.994672 6.1367188 16.138672 z"/>
  </g>
  <g id="js" transform="scale(2.1,2.1)">
    <path stroke="#51bbe2" d="M12.5 8V7.83333C12.5 7.09695 11.903 6.5 11.1667 6.5H10C9.17157 6.5 8.5 7.17157 8.5 8C8.5 8.82843 9.17157 9.5 10 9.5H11C11.8284 9.5 12.5 10.1716 12.5 11C12.5 11.8284 11.8284 12.5 11 12.5H10C9.17157 12.5 8.5 11.8284 8.5 11M6.5 6V11C6.5 11.8284 5.82843 12.5 5 12.5C4.17157 12.5 3.5 11.8284 3.5 11M0.5 0.5H14.5V14.5H0.5V0.5Z"/>
  </g>
  <g id="tests" transform="translate(4.000000,30.000000) scale(0.04,-0.04)">
    <path fill="#51bbe2" d="M220 633 c0 -5 17 -56 37 -115 l38 -106 -28 -26 c-31 -29 -36 -78
-12 -112 13 -19 12 -23 -13 -46 -53 -48 -61 -52 -77 -38 -23 19 -18 45 15 78
36 37 38 71 6 108 -61 72 -175 -2 -133 -85 12 -24 12 -32 -1 -56 -8 -15 -16
-53 -19 -84 -5 -66 17 -110 68 -137 46 -23 100 -14 205 34 49 22 107 44 129
47 71 12 104 26 129 56 23 27 25 38 25 120 -1 91 -11 118 -48 130 -8 3 2 42
29 117 22 62 40 115 40 117 0 3 -88 5 -195 5 -107 0 -195 -3 -195 -7z m307
-128 c-17 -52 -35 -95 -39 -95 -4 0 -23 30 -42 67 l-34 68 -33 -68 c-18 -37
-36 -67 -40 -67 -4 0 -20 37 -35 83 -15 45 -29 88 -32 95 -3 9 29 12 141 12
l145 0 -31 -95z m-89 -140 c-14 -32 -31 -32 -48 0 -12 22 -11 30 4 63 l18 37
19 -37 c16 -31 17 -42 7 -63z m-280 -7 c15 -15 15 -51 0 -66 -15 -15 -51 -15
-66 0 -28 28 -7 78 33 78 12 0 26 -5 33 -12z m196 -10 c13 -19 14 -25 2 -43
-17 -26 -49 -31 -70 -10 -20 21 -20 39 0 59 22 22 50 20 68 -6z m190 6 c20
-20 20 -38 0 -59 -21 -21 -53 -16 -70 10 -12 18 -11 24 2 43 18 26 46 28 68 6z
m-105 -73 c13 -23 58 -42 91 -39 22 3 25 -1 23 -26 -3 -44 -31 -65 -110 -81
-38 -8 -105 -31 -148 -51 -42 -21 -99 -39 -125 -42 -42 -4 -52 -1 -74 21 -29
29 -35 88 -15 146 12 35 29 41 29 11 0 -11 13 -34 28 -51 35 -39 56 -35 121
26 25 23 59 45 74 49 15 4 37 18 49 31 26 30 44 32 57 6z"/>
  </g>
  <g id="yarn">
    <path fill="#51bbe2" d="M 16 3 C 8.8 3 3 8.8 3 16 C 3 23.2 8.8 29 16 29 C 23.2 29 29 23.2 29 16 C 29 8.8 23.2 3 16 3 z M 16 5 C 22.1 5 27 9.9 27 16 C 27 22.1 22.1 27 16 27 C 9.9 27 5 22.1 5 16 C 5 9.9 9.9 5 16 5 z M 16.208984 9.0449219 C 15.75918 9.1214844 15.300781 10.5 15.300781 10.5 C 15.300781 10.5 14.099609 10.300781 13.099609 11.300781 C 12.899609 11.500781 12.700391 11.599219 12.400391 11.699219 C 12.300391 11.799219 12.2 11.800391 12 12.400391 C 11.6 13.300391 12.599609 14.400391 12.599609 14.400391 C 10.499609 15.900391 10.599219 17.900391 10.699219 18.400391 C 9.3992187 19.500391 9.8992187 20.900781 10.199219 21.300781 C 10.399219 21.600781 10.599219 21.5 10.699219 21.5 C 10.699219 21.6 10.199219 22.200391 10.699219 22.400391 C 11.199219 22.700391 12.000391 22.800391 12.400391 22.400391 C 12.700391 22.100391 12.800391 21.499219 12.900391 21.199219 C 13.000391 21.099219 13.000391 21.399609 13.400391 21.599609 C 13.400391 21.599609 12.7 21.899609 13 22.599609 C 13.1 22.799609 13.4 23 14 23 C 14.2 23 16.599219 22.899219 17.199219 22.699219 C 17.599219 22.599219 17.699219 22.400391 17.699219 22.400391 C 20.299219 21.700391 20.799609 20.599219 22.599609 20.199219 C 23.199609 20.099219 23.199609 19.099219 22.099609 19.199219 C 21.299609 19.199219 20.6 19.6 20 20 C 19 20.6 18.300781 20.699609 18.300781 20.599609 C 18.200781 20.499609 18.699219 19.3 18.199219 18 C 17.699219 16.6 16.800391 16.199609 16.900391 16.099609 C 17.200391 15.599609 17.899219 14.800391 18.199219 13.400391 C 18.299219 12.500391 18.300391 11.000781 17.900391 10.300781 C 17.800391 10.100781 17.199219 10.5 17.199219 10.5 C 17.199219 10.5 16.600391 9.1996094 16.400391 9.0996094 C 16.337891 9.0496094 16.273242 9.0339844 16.208984 9.0449219 z"/>
  </g>
  <g id="git">
  <path fill="#51bbe2" d="M 16 2 C 15.496094 2 15.003906 2.183594 14.625 2.5625 L 11.8125 5.40625 C 11.660156 5.488281 11.53125 5.605469 11.4375 5.75 L 2.5625 14.625 C 1.804688 15.378906 1.804688 16.617188 2.5625 17.375 L 14.625 29.4375 C 15.382813 30.191406 16.617188 30.191406 17.375 29.4375 L 29.4375 17.375 C 30.195313 16.621094 30.195313 15.382813 29.4375 14.625 L 17.375 2.5625 C 16.996094 2.183594 16.503906 2 16 2 Z M 16 4.03125 L 27.96875 16 L 16 27.96875 L 4.03125 16 L 12.3125 7.71875 L 14.0625 9.46875 C 14.015625 9.636719 14 9.816406 14 10 C 14 10.738281 14.402344 11.371094 15 11.71875 L 15 20.28125 C 14.402344 20.628906 14 21.261719 14 22 C 14 23.105469 14.894531 24 16 24 C 17.105469 24 18 23.105469 18 22 C 18 21.261719 17.597656 20.628906 17 20.28125 L 17 12.4375 L 20.0625 15.5 C 20.019531 15.660156 20 15.828125 20 16 C 20 17.105469 20.894531 18 22 18 C 23.105469 18 24 17.105469 24 16 C 24 14.894531 23.105469 14 22 14 C 21.828125 14 21.660156 14.019531 21.5 14.0625 L 17.9375 10.5 C 17.980469 10.339844 18 10.171875 18 10 C 18 8.894531 17.105469 8 16 8 C 15.816406 8 15.636719 8.015625 15.46875 8.0625 L 13.71875 6.3125 Z"/>
  </g>
  <!--quotes-->
  <g id="quotes">
    <path d="M18.56 19.616C18.56 21.0453 18.0373 22.2507 16.992 23.232C15.968 24.2133 14.72 24.704 13.248 24.704C11.7333 24.704 10.4747 24.2133 9.472 23.232C8.49067 22.2507 8 21.0453 8 19.616C8 18.9333 8.096 18.208 8.288 17.44C8.48 16.672 8.864 15.68 9.44 14.464L14.4 4H19.2L16.544 15.584C17.1413 16.0107 17.6213 16.576 17.984 17.28C18.368 17.9627 18.56 18.7413 18.56 19.616ZM32.8 19.616C32.8 21.0453 32.2773 22.2507 31.232 23.232C30.1867 24.2133 28.9387 24.704 27.488 24.704C26.016 24.704 24.768 24.2133 23.744 23.232C22.7413 22.2507 22.24 21.0453 22.24 19.616C22.24 18.9333 22.336 18.208 22.528 17.44C22.72 16.672 23.1147 15.68 23.712 14.464L28.704 4H33.472L30.784 15.584C31.4027 16.0107 31.8933 16.576 32.256 17.28C32.6187 17.9627 32.8 18.7413 32.8 19.616Z" fill="#ABB2BF"/>
  </g>
  <!--dots-->
  <g id="dots">
    <circle cx="2" cy="2" r="2" fill="#ABB2BF"/>
    <circle cx="22" cy="2" r="2" fill="#ABB2BF"/>
    <circle cx="42" cy="2" r="2" fill="#ABB2BF"/>
    <circle cx="62" cy="2" r="2" fill="#ABB2BF"/>
    <circle cx="82" cy="2" r="2" fill="#ABB2BF"/>
    <circle cx="2" cy="22" r="2" fill="#ABB2BF"/>
    <circle cx="22" cy="22" r="2" fill="#ABB2BF"/>
    <circle cx="42" cy="22" r="2" fill="#ABB2BF"/>
    <circle cx="62" cy="22" r="2" fill="#ABB2BF"/>
    <circle cx="82" cy="22" r="2" fill="#ABB2BF"/>
    <circle cx="2" cy="42" r="2" fill="#ABB2BF"/>
    <circle cx="22" cy="42" r="2" fill="#ABB2BF"/>
    <circle cx="42" cy="42" r="2" fill="#ABB2BF"/>
    <circle cx="62" cy="42" r="2" fill="#ABB2BF"/>
    <circle cx="82" cy="42" r="2" fill="#ABB2BF"/>
    <circle cx="2" cy="62" r="2" fill="#ABB2BF"/>
    <circle cx="22" cy="62" r="2" fill="#ABB2BF"/>
    <circle cx="42" cy="62" r="2" fill="#ABB2BF"/>
    <circle cx="62" cy="62" r="2" fill="#ABB2BF"/>
    <circle cx="82" cy="62" r="2" fill="#ABB2BF"/>
    <circle cx="2" cy="82" r="2" fill="#ABB2BF"/>
    <circle cx="22" cy="82" r="2" fill="#ABB2BF"/>
    <circle cx="42" cy="82" r="2" fill="#ABB2BF"/>
    <circle cx="62" cy="82" r="2" fill="#ABB2BF"/>
    <circle cx="82" cy="82" r="2" fill="#ABB2BF"/>
  </g>
  <!--dots small-->
  <g id="dots-small">
    <circle cx="2" cy="2" r="2" fill="#C778DD"/>
    <circle cx="28.25" cy="2" r="2" fill="#C778DD"/>
    <circle cx="54.5" cy="2" r="2" fill="#C778DD"/>
    <circle cx="80.75" cy="2" r="2" fill="#C778DD"/>
    <circle cx="107" cy="2" r="2" fill="#C778DD"/>
    <circle cx="2" cy="17" r="2" fill="#C778DD"/>
    <circle cx="28.25" cy="17" r="2" fill="#C778DD"/>
    <circle cx="54.5" cy="17" r="2" fill="#C778DD"/>
    <circle cx="80.75" cy="17" r="2" fill="#C778DD"/>
    <circle cx="107" cy="17" r="2" fill="#C778DD"/>
    <circle cx="2" cy="32" r="2" fill="#C778DD"/>
    <circle cx="28.25" cy="32" r="2" fill="#C778DD"/>
    <circle cx="54.5" cy="32" r="2" fill="#C778DD"/>
    <circle cx="80.75" cy="32" r="2" fill="#C778DD"/>
    <circle cx="107" cy="32" r="2" fill="#C778DD"/>
    <circle cx="2" cy="47" r="2" fill="#C778DD"/>
    <circle cx="28.25" cy="47" r="2" fill="#C778DD"/>
    <circle cx="54.5" cy="47" r="2" fill="#C778DD"/>
    <circle cx="80.75" cy="47" r="2" fill="#ABB2BF"/>
    <circle cx="107" cy="47" r="2" fill="#ABB2BF"/>
  </g>
  <!--x-->
  <g id="x">
    <path d="M73.2847 20.9092L85.4554 33.0798L33.7689 84.7663L21.5983 72.5956L73.2847 20.9092ZM33.251 19.4073L88.1485 74.3047L75.0456 87.4076L20.1481 32.5102L33.251 19.4073Z"  fill="#ABB2BF" fill-opacity="0.5"/>
  </g>
  <!--square-->
  <g id="square">
    <rect x="0.5" y="0.5" width="85" height="85" stroke="#C778DD"/>
  </g><g id="square-big">
  <rect x="0.5" y="0.5" width="154" height="154" stroke="#ABB2BF"/>
  </g>
</svg>
